<?xml version="1.0" standalone="no"?>
<!DOCTYPE svg PUBLIC "-//W3C//DTD SVG 20010904//EN"
 "http://www.w3.org/TR/2001/REC-SVG-20010904/DTD/svg10.dtd">
<svg version="1.0" xmlns="http://www.w3.org/2000/svg"
 width="1024.000000pt" height="1024.000000pt" viewBox="0 0 1024.000000 1024.000000"
 preserveAspectRatio="xMidYMid meet">

<g transform="translate(0.000000,1024.000000) scale(0.100000,-0.100000)"
fill="#000000" stroke="none">
<path d="M0 5120 l0 -5120 5120 0 5120 0 0 5120 0 5120 -5120 0 -5120 0 0
-5120z m1193 1323 c-13 -2 -35 -2 -50 0 -16 2 -5 4 22 4 28 0 40 -2 28 -4z
m325 0 c-53 -2 -143 -2 -200 0 -57 1 -13 3 97 3 110 0 156 -2 103 -3z m270 0
c-32 -2 -84 -2 -115 0 -32 2 -6 3 57 3 63 0 89 -1 58 -3z m615 0 c-100 -2
-266 -2 -370 0 -103 1 -21 2 182 2 204 0 288 -1 188 -2z m265 0 c-16 -2 -40
-2 -55 0 -16 2 -3 4 27 4 30 0 43 -2 28 -4z m260 0 c-43 -2 -113 -2 -155 0
-43 1 -8 3 77 3 85 0 120 -2 78 -3z m145 0 c-13 -2 -33 -2 -45 0 -13 2 -3 4
22 4 25 0 35 -2 23 -4z m70 0 c-7 -2 -21 -2 -30 0 -10 3 -4 5 12 5 17 0 24 -2
18 -5z m50 0 c-7 -2 -19 -2 -25 0 -7 3 -2 5 12 5 14 0 19 -2 13 -5z m-2165
-24 c-31 -11 -77 -38 -102 -60 -25 -23 -46 -36 -46 -31 0 28 144 112 190 111
8 0 -11 -9 -42 -20z m2277 11 c14 -7 8 -8 -20 -3 -22 3 -42 7 -44 9 -9 8 45 2
64 -6z m64 -24 c15 -8 34 -23 42 -32 11 -15 9 -14 -16 2 -16 12 -39 26 -50 32
-29 17 -9 14 24 -2z m147 -158 c13 -26 24 -53 24 -60 0 -7 -13 14 -29 47 -16
33 -41 73 -55 89 -14 16 -26 32 -26 35 1 13 63 -67 86 -111z m-2689 -17 c-12
-27 -23 -45 -25 -41 -3 9 35 90 43 90 2 0 -6 -22 -18 -49z m-36 -136 c-6 -52
-9 -59 -10 -29 -1 41 9 108 15 102 1 -2 -1 -35 -5 -73z m2768 -14 c1 -64 -5
-47 -12 29 -3 39 -2 55 3 40 4 -14 8 -45 9 -69z m-2 -113 c-3 -7 -5 -2 -5 12
0 14 2 19 5 13 2 -7 2 -19 0 -25z m-2770 -80 c-2 -18 -4 -4 -4 32 0 36 2 50 4
33 2 -18 2 -48 0 -65z m2776 -36 c-3 -12 -10 -22 -15 -22 -5 0 -7 3 -5 8 2 4
7 16 11 26 9 25 17 16 9 -12z m927 -372 l0 -400 -45 0 -45 0 0 42 0 42 -34
-35 c-72 -73 -192 -77 -270 -9 -18 16 -45 57 -61 91 -25 57 -27 68 -23 168 3
90 8 114 31 157 14 28 40 63 57 77 74 63 191 61 265 -5 l35 -30 0 151 0 151
45 0 45 0 0 -400z m1383 389 c28 -15 37 -28 37 -58 0 -56 -73 -83 -104 -39
-23 33 -19 64 10 87 31 25 29 24 57 10z m847 -389 l0 -400 -45 0 -45 0 0 400
0 400 45 0 45 0 0 -400z m610 0 l0 -400 -50 0 -50 0 0 35 c0 40 -9 44 -28 14
-17 -27 -88 -59 -133 -59 -88 0 -151 42 -191 126 -54 115 -48 272 12 368 36
57 78 83 145 91 67 9 123 -7 163 -46 l32 -31 0 151 0 151 50 0 50 0 0 -400z
m238 372 c31 -40 1 -102 -49 -102 -56 0 -78 73 -32 109 28 23 59 20 81 -7z
m-6781 -34 c-3 -8 -6 -5 -6 6 -1 11 2 17 5 13 3 -3 4 -12 1 -19z m0 -95 c-2
-16 -4 -5 -4 22 0 28 2 40 4 28 2 -13 2 -35 0 -50z m2770 45 c-3 -8 -6 -5 -6
6 -1 11 2 17 5 13 3 -3 4 -12 1 -19z m0 -70 c-3 -7 -5 -2 -5 12 0 14 2 19 5
13 2 -7 2 -19 0 -25z m6 -38 c3 -11 1 -20 -4 -20 -5 0 -9 9 -9 20 0 11 2 20 4
20 2 0 6 -9 9 -20z m-2776 -12 c-3 -8 -6 -5 -6 6 -1 11 2 17 5 13 3 -3 4 -12
1 -19z m4196 -13 c21 -9 47 -32 60 -49 21 -30 22 -41 25 -269 l3 -238 -48 3
c-48 3 -48 3 -45 36 4 38 -4 40 -29 8 -23 -29 -97 -56 -153 -56 -49 0 -114 31
-141 68 -13 18 -21 47 -23 92 -3 55 0 70 20 100 36 55 98 80 216 87 l102 6 0
39 c0 50 -13 74 -50 93 -58 30 -149 6 -165 -44 -5 -16 -15 -21 -43 -21 -60 0
-67 10 -44 63 21 48 48 70 110 93 48 18 156 13 205 -11z m585 0 c16 -10 41
-36 56 -58 l26 -41 0 -229 0 -228 -47 3 -48 3 -5 205 c-6 227 -10 245 -69 270
-46 19 -99 5 -138 -36 l-33 -35 -2 -202 -3 -202 -47 0 c-27 0 -48 3 -48 8 0 4
0 131 0 282 l0 275 45 0 c43 0 45 -1 45 -30 0 -36 2 -37 36 -5 15 14 41 30 58
35 44 13 139 5 174 -15z m787 6 c86 -40 132 -116 142 -232 l6 -69 -192 0 -191
0 0 -25 c0 -39 24 -87 59 -120 28 -26 40 -30 86 -30 58 0 102 23 120 63 8 18
18 22 57 22 43 0 48 -2 48 -23 0 -35 -46 -94 -98 -124 -41 -24 -57 -28 -127
-28 -125 0 -183 39 -225 151 -25 67 -27 187 -4 263 39 133 198 208 319 152z
m1701 -9 c30 -15 48 -34 63 -65 19 -40 21 -60 21 -266 l0 -222 -47 3 c-47 3
-48 4 -47 36 2 39 -4 40 -38 3 -51 -53 -179 -67 -236 -24 -53 39 -67 70 -67
141 0 122 59 167 233 178 l102 7 0 38 c0 109 -155 147 -216 54 -17 -26 -64
-34 -92 -16 -37 23 44 130 114 149 59 17 162 9 210 -16z m487 17 c49 -13 115
-72 126 -113 4 -17 6 -34 4 -38 -2 -5 -24 -8 -49 -8 -37 0 -46 4 -53 23 -29
75 -179 75 -197 0 -13 -51 15 -71 145 -104 97 -25 145 -60 162 -120 36 -118
-85 -228 -237 -216 -102 8 -173 62 -188 145 l-5 32 49 0 c28 0 50 -4 50 -9 0
-5 12 -23 26 -40 59 -71 204 -43 204 39 0 40 -28 58 -133 89 -113 33 -138 48
-161 94 -67 142 84 274 257 226z m-2643 -284 l0 -285 -50 0 -50 0 0 285 0 285
50 0 50 0 0 -285z m1670 10 c0 -151 0 -278 0 -282 0 -5 -22 -9 -50 -11 l-50
-3 0 285 0 286 50 0 50 0 0 -275z m-6783 133 c-3 -7 -5 -2 -5 12 0 14 2 19 5
13 2 -7 2 -19 0 -25z m2770 -20 c-3 -8 -6 -5 -6 6 -1 11 2 17 5 13 3 -3 4 -12
1 -19z m-2770 -30 c-3 -8 -6 -5 -6 6 -1 11 2 17 5 13 3 -3 4 -12 1 -19z m2770
-50 c-2 -13 -4 -5 -4 17 -1 22 1 32 4 23 2 -10 2 -28 0 -40z m-2770 10 c-3 -8
-6 -5 -6 6 -1 11 2 17 5 13 3 -3 4 -12 1 -19z m0 -175 c-2 -16 -4 -5 -4 22 0
28 2 40 4 28 2 -13 2 -35 0 -50z m2783 -34 c0 -5 -4 -9 -10 -9 -5 0 -10 7 -10
16 0 8 5 12 10 9 6 -3 10 -10 10 -16z m-13 -66 c-3 -10 -5 -4 -5 12 0 17 2 24
5 18 2 -7 2 -21 0 -30z m-2770 -15 c-3 -7 -5 -2 -5 12 0 14 2 19 5 13 2 -7 2
-19 0 -25z m2770 -45 c-3 -10 -5 -4 -5 12 0 17 2 24 5 18 2 -7 2 -21 0 -30z
m-2770 -35 c-2 -13 -4 -3 -4 22 0 25 2 35 4 23 2 -13 2 -33 0 -45z m2770 -20
c-3 -7 -5 -2 -5 12 0 14 2 19 5 13 2 -7 2 -19 0 -25z m-2770 -50 c-3 -8 -6 -5
-6 6 -1 11 2 17 5 13 3 -3 4 -12 1 -19z m2770 -65 c-3 -10 -5 -2 -5 17 0 19 2
27 5 18 2 -10 2 -26 0 -35z m-2770 -15 c-3 -7 -5 -2 -5 12 0 14 2 19 5 13 2
-7 2 -19 0 -25z m0 -100 c-3 -7 -5 -2 -5 12 0 14 2 19 5 13 2 -7 2 -19 0 -25z
m2770 -45 c-3 -10 -5 -4 -5 12 0 17 2 24 5 18 2 -7 2 -21 0 -30z m-2770 5 c-3
-8 -6 -5 -6 6 -1 11 2 17 5 13 3 -3 4 -12 1 -19z m0 -50 c-3 -8 -6 -5 -6 6 -1
11 2 17 5 13 3 -3 4 -12 1 -19z m2770 -30 c-3 -8 -6 -5 -6 6 -1 11 2 17 5 13
3 -3 4 -12 1 -19z m-2770 -20 c-3 -7 -5 -2 -5 12 0 14 2 19 5 13 2 -7 2 -19 0
-25z m2770 -60 c-2 -13 -4 -5 -4 17 -1 22 1 32 4 23 2 -10 2 -28 0 -40z
m-2770 5 c-3 -10 -5 -4 -5 12 0 17 2 24 5 18 2 -7 2 -21 0 -30z m3462 19 c40
-20 68 -56 73 -92 3 -22 -1 -25 -29 -28 -27 -3 -33 0 -33 17 0 30 -46 61 -91
61 -46 0 -79 -27 -79 -65 0 -30 28 -50 101 -71 102 -30 139 -67 139 -137 -1
-77 -60 -127 -152 -127 -33 0 -72 7 -88 15 -37 19 -70 62 -70 91 0 20 5 24 30
24 17 0 30 -5 30 -12 0 -6 10 -22 22 -35 31 -33 109 -33 143 2 49 48 22 87
-82 117 -100 29 -133 61 -133 128 0 38 6 55 27 80 14 18 36 36 47 40 36 15
109 11 145 -8z m641 -11 c0 -23 -4 -28 -19 -24 -22 6 -51 -21 -51 -48 0 -15 7
-19 36 -19 33 0 35 -2 32 -27 -2 -24 -8 -28 -33 -28 l-30 -1 -3 -142 -3 -143
-27 3 -27 3 -2 140 c-1 128 -3 140 -20 140 -12 0 -19 9 -21 28 -3 23 0 27 22
27 24 0 26 4 26 40 0 27 7 47 20 60 13 13 33 20 60 20 37 0 40 -2 40 -29z
m3220 -201 l0 -230 -30 0 -30 0 0 230 0 230 30 0 30 0 0 -230z m-1181 187 c53
-35 82 -96 84 -175 2 -85 -10 -129 -49 -172 -47 -52 -108 -72 -210 -68 l-79 3
0 215 c0 118 1 219 4 223 2 5 49 7 105 5 93 -3 107 -6 145 -31z m-1889 -37 c0
-39 1 -40 35 -40 32 0 35 -2 35 -31 0 -28 -2 -30 -32 -27 l-33 3 -3 -90 c-4
-119 1 -135 38 -135 27 0 30 -3 30 -30 0 -28 -2 -30 -40 -30 -30 0 -47 7 -65
25 -24 23 -25 30 -25 145 0 110 -2 121 -17 118 -13 -2 -19 5 -21 25 -3 22 1
27 17 27 18 0 21 6 21 40 0 38 2 40 30 40 28 0 30 -2 30 -40z m-4253 -47 c-2
-16 -4 -5 -4 22 0 28 2 40 4 28 2 -13 2 -35 0 -50z m3835 -32 c41 -37 42 -41
46 -110 5 -81 -6 -116 -49 -156 -22 -22 -41 -29 -83 -33 -98 -8 -146 49 -146
173 0 111 44 164 138 165 48 0 57 -4 94 -39z m629 -86 c22 -101 27 -115 34
-90 4 17 19 72 33 123 24 86 27 92 52 92 26 0 28 -5 56 -115 16 -63 31 -115
34 -115 3 0 16 51 30 113 l25 112 33 3 c18 2 32 -1 32 -8 0 -6 -15 -63 -34
-128 -19 -64 -40 -136 -46 -159 -9 -38 -14 -43 -38 -43 -26 0 -29 4 -55 98
-15 53 -27 107 -27 120 0 29 -20 29 -21 0 0 -13 -13 -66 -28 -118 -26 -92 -27
-95 -55 -95 -29 0 -29 1 -72 150 -53 186 -53 187 -12 183 l33 -3 26 -120z
m579 110 c16 -8 34 -24 40 -34 5 -11 10 -81 10 -156 l0 -136 -27 3 c-20 2 -27
8 -25 21 4 23 -11 22 -33 -3 -13 -15 -31 -20 -65 -20 -39 0 -51 5 -75 30 -40
42 -41 99 -2 137 23 23 37 28 97 31 69 4 70 5 70 33 0 55 -73 79 -108 34 -25
-32 -72 -35 -72 -4 0 11 13 34 29 50 25 24 37 29 81 29 28 0 64 -7 80 -15z
m183 -2 c-4 -18 12 -16 27 2 7 8 28 15 46 15 31 0 34 -3 34 -30 0 -27 -3 -30
-33 -30 -57 0 -66 -20 -69 -155 l-3 -120 -27 -3 -28 -3 0 171 0 171 28 -3 c15
-2 26 -8 25 -15z m361 -4 c37 -29 56 -71 56 -124 l0 -45 -105 0 c-101 0 -105
-1 -105 -22 0 -59 95 -92 135 -48 17 19 75 29 75 13 -1 -19 -29 -56 -56 -74
-19 -12 -46 -19 -80 -19 -43 0 -56 5 -88 33 -31 27 -38 42 -47 93 -14 81 1
137 48 181 30 29 41 33 87 33 39 0 61 -6 80 -21z m930 -10 c35 -31 56 -79 56
-131 l0 -28 -111 0 -111 0 7 -27 c3 -16 14 -36 22 -45 23 -25 87 -24 113 2 26
26 70 27 70 2 0 -39 -69 -82 -131 -82 -86 0 -139 65 -139 170 0 62 13 97 53
138 27 28 37 32 84 32 44 0 58 -5 87 -31z m160 14 c3 -10 19 -65 37 -123 36
-117 31 -120 76 35 28 98 29 100 61 103 18 2 32 -1 32 -6 0 -5 -24 -81 -54
-168 -53 -154 -55 -159 -84 -162 -24 -2 -30 1 -35 20 -3 13 -27 87 -55 165
-27 78 -47 145 -44 148 13 13 61 4 66 -12z m460 -4 c37 -29 56 -71 56 -124 l0
-45 -105 0 c-101 0 -105 -1 -105 -22 0 -58 95 -92 134 -49 19 21 63 33 72 20
2 -5 -2 -22 -11 -39 -45 -87 -202 -78 -241 15 -18 44 -18 146 0 189 21 50 62
75 122 76 37 0 59 -6 78 -21z m487 -6 c17 -15 38 -42 45 -60 20 -47 17 -130
-6 -178 -25 -52 -64 -75 -128 -75 -87 0 -142 66 -142 169 0 109 54 171 147
171 41 0 58 -5 84 -27z m189 1 l0 -26 31 26 c61 52 153 26 185 -50 21 -51 18
-162 -6 -201 -22 -38 -67 -63 -109 -63 -33 0 -81 19 -81 32 0 4 -3 8 -7 8 -5
0 -8 -33 -8 -72 l0 -73 -30 0 -30 0 -3 210 c-1 115 0 215 2 222 3 7 17 13 31
13 20 0 25 -5 25 -26z m508 6 c39 -24 62 -73 62 -130 l0 -40 -111 0 c-97 0
-110 -2 -105 -16 3 -9 6 -20 6 -25 0 -22 42 -49 75 -49 22 0 43 8 55 20 11 11
31 20 45 20 37 0 32 -32 -10 -69 -31 -27 -43 -31 -92 -31 -51 0 -58 3 -93 38
-43 43 -56 93 -45 175 6 42 15 59 45 89 33 34 43 38 86 38 31 0 61 -7 82 -20z
m182 -2 l0 -22 20 22 c14 15 33 22 56 22 33 0 35 -2 32 -27 -2 -23 -8 -29 -34
-31 -58 -6 -69 -30 -72 -163 -4 -118 -4 -119 -27 -119 l-24 0 -3 166 c-2 91
-1 168 1 170 2 2 15 4 28 4 17 0 23 -6 23 -22z m-5733 -10 c-3 -8 -6 -5 -6 6
-1 11 2 17 5 13 3 -3 4 -12 1 -19z m-2770 -60 c-3 -8 -6 -5 -6 6 -1 11 2 17 5
13 3 -3 4 -12 1 -19z m2770 -10 c-3 -8 -6 -5 -6 6 -1 11 2 17 5 13 3 -3 4 -12
1 -19z m-2770 -50 c-3 -7 -5 -2 -5 12 0 14 2 19 5 13 2 -7 2 -19 0 -25z m2770
10 c-3 -8 -6 -5 -6 6 -1 11 2 17 5 13 3 -3 4 -12 1 -19z m-2770 -90 c-3 -8 -6
-5 -6 6 -1 11 2 17 5 13 3 -3 4 -12 1 -19z m2770 -25 c-3 -10 -5 -2 -5 17 0
19 2 27 5 18 2 -10 2 -26 0 -35z m-2770 -25 c-3 -7 -5 -2 -5 12 0 14 2 19 5
13 2 -7 2 -19 0 -25z m0 -100 c-3 -7 -5 -2 -5 12 0 14 2 19 5 13 2 -7 2 -19 0
-25z m2758 -169 c-22 -64 -29 -59 -10 6 8 26 16 73 17 104 l2 56 3 -58 c3 -37
-2 -77 -12 -108z m-2753 71 c3 -42 2 -64 -2 -50 -8 25 -13 137 -6 129 2 -2 6
-38 8 -79z m46 -143 c17 -30 54 -75 84 -102 57 -52 48 -52 -18 1 -22 18 -55
60 -73 93 -40 75 -34 81 7 8z m2662 -27 c0 -5 -5 -10 -11 -10 -5 0 -7 5 -4 10
3 6 8 10 11 10 2 0 4 -4 4 -10z m-36 -51 c-26 -29 -104 -82 -111 -76 -3 3 8
12 24 20 15 9 43 31 62 51 36 37 58 42 25 5z m-2399 -95 c76 -21 2135 -21
2215 0 64 17 75 14 28 -5 -27 -12 -228 -15 -1113 -17 -982 -3 -1086 -1 -1143
14 -34 9 -65 21 -69 27 -4 7 0 8 13 3 10 -5 42 -14 69 -22z"/>
<path d="M4204 5560 c-29 -12 -70 -63 -84 -106 -16 -46 -8 -170 13 -210 52
-100 160 -107 229 -13 23 31 42 132 33 184 -17 109 -108 179 -191 145z"/>
<path d="M7023 5551 c-53 -33 -78 -92 -78 -186 0 -99 28 -159 88 -189 79 -38
166 18 188 121 13 68 5 155 -19 197 -39 67 -121 93 -179 57z"/>
<path d="M4842 5330 c-76 -9 -112 -36 -112 -86 0 -42 47 -84 93 -83 88 1 147
55 147 135 0 50 3 49 -128 34z"/>
<path d="M6198 5553 c-26 -16 -59 -67 -73 -110 l-6 -23 135 0 c153 0 152 0
121 74 -28 67 -116 96 -177 59z"/>
<path d="M7911 5330 c-53 -6 -69 -12 -88 -34 -38 -44 -27 -97 24 -124 31 -17
72 -14 121 8 48 22 72 64 72 125 0 40 0 40 -129 25z"/>
<path d="M6732 4409 l3 -164 50 -3 c94 -5 152 45 162 140 7 68 -8 115 -48 154
-26 25 -39 29 -100 32 l-70 4 3 -163z"/>
<path d="M4482 4450 c-28 -26 -36 -58 -30 -121 6 -63 29 -89 80 -89 32 0 41 5
59 33 31 49 23 141 -15 174 -33 28 -65 29 -94 3z"/>
<path d="M5712 4319 c-19 -7 -23 -15 -20 -41 3 -31 6 -33 45 -36 47 -3 83 24
83 65 0 21 -5 23 -42 22 -24 0 -53 -4 -66 -10z"/>
<path d="M6241 4444 c-12 -15 -21 -35 -21 -45 0 -17 8 -19 75 -19 80 0 84 3
60 49 -25 49 -82 56 -114 15z"/>
<path d="M7173 4448 c-11 -13 -24 -33 -27 -44 -6 -21 -3 -22 69 -23 67 -1 75
0 75 17 0 11 -9 31 -21 46 -26 33 -68 35 -96 4z"/>
<path d="M7795 4445 c-14 -13 -25 -33 -25 -45 0 -18 6 -20 75 -20 80 0 84 3
60 49 -24 48 -72 55 -110 16z"/>
<path d="M8283 4455 c-45 -32 -54 -134 -17 -191 13 -19 25 -24 60 -24 53 0 75
26 82 99 9 97 -60 161 -125 116z"/>
<path d="M8639 4441 c-26 -26 -29 -37 -29 -89 0 -76 24 -112 76 -112 61 0 91
50 81 138 -4 34 -12 53 -32 69 -35 31 -61 29 -96 -6z"/>
<path d="M8988 4453 c-23 -27 -39 -61 -31 -66 14 -8 142 -7 147 1 6 10 -21 64
-37 74 -21 14 -63 8 -79 -9z"/>
</g>
</svg>
